# File created by Blade
# Date/Time:  Thu Sep 25 19:36:54 2014
# Frame Rate: 120.000 fps
#------------------------------------------------------
:FULLY-SPECIFIED
:DEGREES
1222
root -3.328822 32.876805 2.289660 -0.708165 3.291631 0.904977
Spine -8.411855 3.558672 -0.439491
Head -11.779199 -2.285376 15.772421
LeftShoulder -15.959730 14.878912 31.138884
LeftArm 19.762326 -23.679022 -19.219112
LeftForeArm 13.556486 0.000000 10.933699
LeftHand -24.680266 -0.000000 -15.550647
LeftHandThumb1 -26.253704 0.000000 33.147579
RightShoulder -23.838530 16.752034 -42.685565
RightArm 2.806528 -0.154863 21.480431
RightForeArm -35.065257 -0.000000 12.760882
RightHand -11.829827 -0.000000 14.253107
RightHandThumb1 -24.326973 -0.000000 -32.862282
LeftUpLeg 5.688541 -1.756232 -0.525373
LeftLeg -0.334153 -0.000000 0.000000
LeftFoot -11.299407 5.753363 -18.512745
LeftToeBase 7.911285 -0.000000 -0.000000
RightUpLeg 5.833938 -3.138409 0.260598
RightLeg 3.459681 -0.000000 -0.000000
RightFoot -12.073984 -10.198917 2.696438
RightToeBase -0.069720 -0.000000 0.000000
1223
root -3.334257 32.875431 2.301732 -0.737284 3.282161 0.924520
Spine -8.436216 3.585817 -0.450352
Head -11.693314 -2.259658 15.746778
LeftShoulder -15.941986 14.875457 31.161093
LeftArm 19.721225 -23.717089 -19.254757
LeftForeArm 13.522057 0.000000 11.001778
LeftHand -24.726218 -0.000000 -15.634086
LeftHandThumb1 -26.253704 0.000000 33.147579
RightShoulder -23.823058 16.729370 -42.690251
RightArm 2.808939 -0.108069 21.464839
RightForeArm -35.035809 -0.000000 12.784657
RightHand -11.864511 -0.000000 14.115977
RightHandThumb1 -24.326973 -0.000000 -32.862282
LeftUpLeg 5.733964 -1.730800 -0.536353
LeftLeg -0.319536 -0.000000 0.000000
LeftFoot -11.331876 5.755697 -18.499703
LeftToeBase 8.011374 -0.000000 -0.000000
RightUpLeg 5.858226 -3.201060 0.243190
RightLeg 3.510390 -0.000000 -0.000000
RightFoot -12.028122 -10.205804 2.514477
RightToeBase -0.360166 -0.000000 0.000000
1224
root -3.339597 32.874737 2.312784 -0.762025 3.277557 0.942650
Spine -8.459082 3.602026 -0.455204
Head -11.627407 -2.222871 15.717527
LeftShoulder -15.949459 14.876327 31.156687
LeftArm 19.719429 -23.741434 -19.272471
LeftForeArm 13.545737 -0.000000 11.009264
LeftHand -24.709954 -0.000000 -15.691502
LeftHandThumb1 -26.253704 0.000000 33.147579
RightShoulder -23.837172 16.721245 -42.706238
RightArm 2.843946 -0.061881 21.458460
RightForeArm -35.031644 -0.000000 12.803768
RightHand -11.941044 -0.000000 13.982157
RightHandThumb1 -24.326973 -0.000000 -32.862282
LeftUpLeg 5.767810 -1.705329 -0.545499
LeftLeg -0.298467 -0.000000 0.000000
LeftFoot -11.337319 5.734645 -18.511405
LeftToeBase 7.903485 -0.000000 -0.000000
RightUpLeg 5.900898 -3.177493 0.233531
RightLeg 3.519975 -0.000000 -0.000000
RightFoot -12.056510 -10.209660 2.541412
RightToeBase -0.348114 -0.000000 0.000000
1225
root -3.346349 32.874107 2.325013 -0.795627 3.278005 0.941124
Spine -8.479474 3.601972 -0.436607
Head -11.546284 -2.170945 15.689328
LeftShoulder -15.946035 14.877650 31.153932
LeftArm 19.690582 -23.737593 -19.285056
LeftForeArm 13.616387 -0.000000 11.009856
LeftHand -24.652426 -0.000000 -15.686662
LeftHandThumb1 -26.253704 0.000000 33.147579
RightShoulder -23.832208 16.713023 -42.706652
RightArm 2.879559 0.039142 21.440761
RightForeArm -35.101934 -0.000000 12.835856
RightHand -11.929071 -0.000000 13.956476
RightHandThumb1 -24.326973 -0.000000 -32.862282
LeftUpLeg 5.813249 -1.694997 -0.533363
LeftLeg -0.281952 -0.000000 0.000000
LeftFoot -11.356276 5.738871 -18.509869
LeftToeBase 7.844414 -0.000000 -0.000000
RightUpLeg 5.949510 -3.183280 0.243022
RightLeg 3.533000 -0.000000 -0.000000
RightFoot -12.075158 -10.190946 2.566270
RightToeBase -0.321051 -0.000000 0.000000
1226
root -3.356748 32.873290 2.335460 -0.823020 3.280318 0.920439
Spine -8.500672 3.605875 -0.408948
Head -11.483014 -2.124678 15.693392
LeftShoulder -15.941078 14.849926 31.160530
LeftArm 19.670362 -23.687836 -19.286957
LeftForeArm 13.751255 0.000000 10.991839
LeftHand -24.579260 -0.000000 -15.647292
LeftHandThumb1 -26.253704 0.000000 33.147579
RightShoulder -23.838293 16.699914 -42.697791
RightArm 2.930599 0.052947 21.412557
RightForeArm -35.174375 -0.000000 12.856533
RightHand -11.969642 0.000000 13.955907
RightHandThumb1 -24.326973 -0.000000 -32.862282
LeftUpLeg 5.856848 -1.790961 -0.505182
LeftLeg -0.280562 -0.000000 0.000000
LeftFoot -11.408882 5.829326 -18.534437
LeftToeBase 7.866753 -0.000000 -0.000000
RightUpLeg 6.001105 -3.126604 0.284313
RightLeg 3.516400 -0.000000 -0.000000
RightFoot -12.069189 -10.220543 2.609166
RightToeBase -0.371981 -0.000000 0.000000
1227
root -3.359176 32.872313 2.347670 -0.855620 3.294705 0.948490
Spine -8.515575 3.610087 -0.422978
Head -11.434104 -2.112728 15.673592
LeftShoulder -15.927072 14.849340 31.156492
LeftArm 19.647218 -23.650731 -19.272125
LeftForeArm 13.914404 -0.000000 10.981396
LeftHand -24.528923 -0.000000 -15.826418
LeftHandThumb1 -26.253704 0.000000 33.147579
RightShoulder -23.876481 16.723067 -42.711475
RightArm 2.999631 -0.036579 21.367849
RightForeArm -35.246155 -0.000000 12.872544
RightHand -11.980715 -0.000000 13.986063
RightHandThumb1 -24.326973 -0.000000 -32.862282
LeftUpLeg 5.890338 -1.668343 -0.519004
LeftLeg -0.241416 -0.000000 0.000000
LeftFoot -11.384422 5.717748 -18.491031
LeftToeBase 7.832671 -0.000000 -0.000000
RightUpLeg 6.065537 -3.123611 0.257974
RightLeg 3.502754 -0.000000 -0.000000
RightFoot -12.094645 -10.217628 2.631557
RightToeBase -0.385522 -0.000000 0.000000
1228
root -3.362984 32.871446 2.358250 -0.887197 3.306635 0.960708
Spine -8.530586 3.604777 -0.412167
Head -11.360521 -2.111338 15.639119
LeftShoulder -15.922793 14.904181 31.118846
LeftArm 19.636299 -23.679879 -19.284600
LeftForeArm 13.935354 0.000000 11.018662
LeftHand -24.638370 -0.000000 -15.746031
LeftHandThumb1 -26.253704 0.000000 33.147579
RightShoulder -23.874739 16.744573 -42.723726
RightArm 3.033800 -0.159429 21.310686
RightForeArm -35.368603 -0.000000 12.908186
RightHand -11.935778 -0.000000 14.085322
RightHandThumb1 -24.326973 -0.000000 -32.862282
LeftUpLeg 5.933679 -1.673659 -0.526226
LeftLeg -0.230093 -0.000000 0.000000
LeftFoot -11.405497 5.723702 -18.491985
LeftToeBase 7.859054 -0.000000 -0.000000
RightUpLeg 6.120188 -3.118182 0.252197
RightLeg 3.497479 -0.000000 -0.000000
RightFoot -12.109207 -10.229583 2.628398
RightToeBase -0.404644 -0.000000 0.000000
1229
root -3.367645 32.870659 2.370026 -0.921995 3.313135 0.978089
Spine -8.550232 3.603050 -0.416873
Head -11.293631 -2.117224 15.622564
LeftShoulder -15.918703 14.959371 31.078512
LeftArm 19.620228 -23.624482 -19.225502
LeftForeArm 13.927661 -0.000000 11.012305
LeftHand -24.639856 -0.000000 -15.820612
LeftHandThumb1 -26.253704 0.000000 33.147579
RightShoulder -23.916472 16.839256 -42.816219
RightArm 3.052530 -0.343403 21.326948
RightForeArm -35.549402 -0.000000 12.952459
RightHand -11.874089 0.000000 14.165794
RightHandThumb1 -24.326973 -0.000000 -32.862282
LeftUpLeg 5.981189 -1.659088 -0.540656
LeftLeg -0.213799 -0.000000 0.000000
LeftFoot -11.420162 5.743974 -18.455734
LeftToeBase 7.864367 -0.000000 -0.000000
RightUpLeg 6.182275 -3.148767 0.235912
RightLeg 3.488239 -0.000000 -0.000000
RightFoot -12.125934 -10.199892 2.627200
RightToeBase -0.348316 -0.000000 0.000000
1230
root -3.370937 32.869031 2.380927 -0.932891 3.325109 0.978480
Spine -8.593883 3.596538 -0.399319
Head -11.250308 -2.112844 15.618208
LeftShoulder -15.915803 15.006140 31.063243
LeftArm 19.591730 -23.574982 -19.222987
LeftForeArm 13.928216 -0.000000 11.034229
LeftHand -24.642539 -0.000000 -15.760642
LeftHandThumb1 -26.253704 0.000000 33.147579
RightShoulder -23.800011 16.905075 -42.794709
RightArm 2.906928 -0.554543 21.194821
RightForeArm -35.488749 -0.000000 13.061928
RightHand -11.870013 -0.000000 14.180341
RightHandThumb1 -24.326973 -0.000000 -32.862282
LeftUpLeg 6.003633 -1.658185 -0.532406
LeftLeg -0.200813 -0.000000 0.000000
LeftFoot -11.440682 5.714489 -18.481479
LeftToeBase 7.838868 -0.000000 -0.000000
RightUpLeg 6.195125 -3.188495 0.238322
RightLeg 3.531631 -0.000000 -0.000000
RightFoot -12.160426 -10.187755 2.604006
RightToeBase -0.338898 -0.000000 0.000000
1231
root -3.375587 32.867173 2.393537 -0.953013 3.330713 0.982821
Spine -8.631176 3.609115 -0.395319
Head -11.215615 -2.140913 15.604002
LeftShoulder -15.913322 15.047113 31.055792
LeftArm 19.584139 -23.555931 -19.244824
LeftForeArm 13.899281 0.000000 11.058606
LeftHand -24.584912 -0.000000 -15.750345
LeftHandThumb1 -26.253704 0.000000 33.147579
RightShoulder -23.808798 16.878654 -42.792161
RightArm 2.965487 -0.678417 21.146552
RightForeArm -35.439176 -0.000000 13.068643
RightHand -11.833572 -0.000000 14.145191
RightHandThumb1 -24.326973 -0.000000 -32.862282
LeftUpLeg 6.016877 -1.550206 -0.519198
LeftLeg -0.141846 -0.000000 0.000000
LeftFoot -11.479968 5.627822 -18.428312
LeftToeBase 7.876513 -0.000000 -0.000000
RightUpLeg 6.244958 -3.196447 0.241443
RightLeg 3.518559 -0.000000 -0.000000
RightFoot -12.172971 -10.188933 2.591145
RightToeBase -0.358498 -0.000000 0.000000
